<svg version="1.0" xmlns="http://www.w3.org/2000/svg" width="30pt" height="25pt" viewBox="0 0 514 514" style="" preserveAspectRatio="xMidYMid meet">
                    <g fill="#2e5cca" stroke="#000000FF">
                    <path d="M 334.000 85.561 C 332.625 85.796 328.350 86.497 324.500 87.118 C 314.462 88.738 301.219 93.276 290.743 98.687 C 260.436 114.340 238.111 142.421 229.278 176.000 C 225.888 188.889 225.004 213.041 227.416 226.901 C 234.878 269.781 264.917 305.280 306.000 319.769 C 320.157 324.762 329.855 326.367 346.000 326.388 C 371.601 326.421 393.981 319.897 413.362 306.750 L 419.223 302.774 444.862 328.337 C 470.860 354.259 474.330 357.000 481.152 357.000 C 485.380 357.000 492.005 353.653 494.451 350.281 C 497.122 346.597 497.739 337.360 495.613 332.879 C 494.728 331.015 482.596 318.088 468.653 304.153 L 443.301 278.816 447.651 272.329 C 456.415 259.260 462.742 243.230 465.584 226.901 C 467.996 213.041 467.112 188.889 463.722 176.000 C 451.878 130.973 416.508 97.247 370.838 87.433 C 363.800 85.920 339.204 84.670 334.000 85.561 M 368.093 120.859 C 406.823 130.952 434.000 165.719 434.000 205.170 C 434.000 230.197 425.923 249.924 408.500 267.448 C 393.774 282.259 376.859 290.507 355.739 293.175 C 332.249 296.141 305.150 287.143 287.017 270.355 C 255.076 240.784 249.680 192.130 274.334 156.000 C 286.894 137.594 308.270 123.783 330.834 119.498 C 340.844 117.596 357.976 118.222 368.093 120.859 "></path></g>
                    <g fill="#2e5cca" stroke="#000000FF">
                    <path d="M 24.241 382.995 C 19.361 385.970 17.007 390.527 17.007 397.000 C 17.007 403.473 19.361 408.030 24.241 411.005 C 27.459 412.967 29.628 412.993 196.102 412.996 L 364.704 413.000 368.048 410.747 C 377.858 404.135 377.858 389.865 368.048 383.253 L 364.704 381.000 196.102 381.004 C 29.628 381.007 27.459 381.033 24.241 382.995 "></path></g>
                    <g fill="#2e5cca" stroke="#000000FF">
                    <path d="M 24.241 30.989 C 19.359 33.973 17.007 38.529 17.007 45.000 C 17.007 51.471 19.359 56.027 24.241 59.011 C 27.465 60.981 29.244 61.000 190.500 60.751 C 351.719 60.503 353.530 60.478 356.235 58.500 C 359.698 55.969 363.000 49.378 363.000 45.000 C 363.000 40.622 359.698 34.031 356.235 31.500 C 353.530 29.522 351.719 29.497 190.500 29.249 C 29.244 29.000 27.465 29.019 24.241 30.989 "></path></g>
                    <g fill="#2e5cca" stroke="#000000FF">
                    <path d="M 24.241 294.995 C 19.361 297.970 17.007 302.527 17.007 309.000 C 17.007 315.473 19.361 320.030 24.241 323.005 C 27.422 324.945 29.437 324.993 108.018 324.996 L 188.536 325.000 192.125 322.561 C 201.393 316.263 201.135 300.955 191.663 295.101 C 188.283 293.012 187.807 293.000 107.882 293.004 C 29.437 293.007 27.421 293.055 24.241 294.995 "></path></g>
                    <g fill="#2e5cca" stroke="#000000FF">
                    <path d="M 24.241 206.995 C 19.361 209.970 17.007 214.527 17.007 221.000 C 17.007 227.473 19.361 232.030 24.241 235.005 C 27.422 236.945 29.437 236.993 108.018 236.996 L 188.536 237.000 192.125 234.561 C 201.393 228.263 201.135 212.955 191.663 207.101 C 188.283 205.012 187.807 205.000 107.882 205.004 C 29.437 205.007 27.421 205.055 24.241 206.995 "></path></g>
                    <g fill="#2e5cca" stroke="#000000FF">
                    <path d="M 24.241 118.995 C 19.361 121.970 17.007 126.527 17.007 133.000 C 17.007 139.473 19.361 144.030 24.241 147.005 C 27.422 148.945 29.437 148.993 108.018 148.996 L 188.536 149.000 192.125 146.561 C 201.393 140.263 201.135 124.955 191.663 119.101 C 188.283 117.012 187.807 117.000 107.882 117.004 C 29.437 117.007 27.421 117.055 24.241 118.995 "></path></g>
                    </svg>