<svg xmlns="http://www.w3.org/2000/svg" height="24" viewBox="0 -960 960 960" width="24"><path d="M126.154-206.154v-55.692h80v-430.462q0-25.384 18.077-43.461 18.077-18.077 43.461-18.077h526.154v36.923H267.692q-10.769 0-17.692 6.923t-6.923 17.692v430.462h221.077v55.692h-338Zm476.654 0q-13 0-21.981-8.98-8.981-8.981-8.981-21.981v-356.924q0-12.557 8.981-21.567 8.981-9.009 21.981-9.009h201.386q12.46 0 21.441 9.009 8.981 9.01 8.981 21.567v356.924q0 13-9.01 21.981-9.01 8.98-21.567 8.98H602.808Zm5.961-55.692h188.923v-325.846H608.769v325.846Zm0 0h188.923-188.923Z"/></svg>