<svg width="20" height="13" viewBox="0 0 20 13" fill="none" xmlns="http://www.w3.org/2000/svg">
<path d="M0.999023 0.103455C0.447023 0.103455 -0.000976562 0.551455 -0.000976562 1.10345C-0.000976562 1.65545 0.447023 2.10345 0.999023 2.10345H18.999C19.551 2.10345 19.999 1.65545 19.999 1.10345C19.999 0.551455 19.551 0.103455 18.999 0.103455H0.999023ZM0.999023 5.10345C0.447023 5.10345 -0.000976562 5.55145 -0.000976562 6.10345C-0.000976562 6.65545 0.447023 7.10345 0.999023 7.10345H18.999C19.551 7.10345 19.999 6.65545 19.999 6.10345C19.999 5.55145 19.551 5.10345 18.999 5.10345H0.999023ZM0.999023 10.1035C0.447023 10.1035 -0.000976562 10.5515 -0.000976562 11.1035C-0.000976562 11.6555 0.447023 12.1035 0.999023 12.1035H18.999C19.551 12.1035 19.999 11.6555 19.999 11.1035C19.999 10.5515 19.551 10.1035 18.999 10.1035H0.999023Z" fill="white"></path>
</svg>