<svg version="1.0" xmlns="http://www.w3.org/2000/svg" width="30pt" height="25pt" viewBox="0 0 514 514" style="" preserveAspectRatio="xMidYMid meet">
                <g fill="#2e5cca" stroke="#000000FF">
                <path d="M 109.024 17.603 C 97.805 20.618 88.097 29.163 83.809 39.798 C 81.563 45.367 81.503 46.437 81.203 85.750 C 81.034 107.888 80.581 126.007 80.198 126.015 C 79.814 126.023 72.213 127.127 63.308 128.469 C 45.203 131.196 41.039 132.801 32.000 140.537 C 18.983 151.677 8.339 168.649 3.801 185.500 C 1.865 192.688 1.640 196.138 1.586 219.500 C 1.528 244.244 1.658 246.120 4.285 258.333 C 11.570 292.200 27.307 327.757 48.766 358.830 C 92.265 421.817 157.237 470.822 222.000 489.488 C 252.548 498.293 288.931 500.244 313.000 494.367 C 320.672 492.493 333.882 486.544 340.673 481.904 C 351.427 474.555 364.164 460.100 366.805 452.245 C 368.764 446.419 373.192 412.767 372.557 408.531 C 371.610 402.216 367.710 394.857 363.115 390.715 C 360.360 388.231 346.388 380.682 322.475 368.756 L 286.034 350.582 278.767 350.541 C 265.420 350.465 260.850 353.615 245.500 373.467 C 231.427 391.668 233.757 390.946 216.250 382.528 C 196.513 373.037 178.481 360.178 160.148 342.521 L 149.744 332.500 317.622 332.000 L 485.500 331.500 491.175 328.840 C 498.759 325.284 504.991 319.347 509.110 311.752 L 512.500 305.500 512.765 175.827 C 513.029 46.251 513.028 46.149 510.931 40.544 C 508.139 33.083 503.596 27.305 496.958 22.775 C 486.353 15.537 499.945 15.993 297.040 16.066 C 139.648 16.123 113.746 16.334 109.024 17.603 M 482.628 34.294 C 483.064 34.731 443.614 74.858 394.961 123.465 C 317.408 200.945 305.976 211.995 302.250 213.080 C 292.860 215.813 298.284 220.617 200.754 123.183 C 130.587 53.084 112.374 34.377 113.754 33.826 C 116.190 32.854 481.651 33.317 482.628 34.294 M 280.082 225.782 C 285.354 228.981 295.545 231.333 300.949 230.600 C 312.976 228.967 313.898 228.315 338.025 204.385 L 360.550 182.044 424.868 246.368 L 489.186 310.692 484.604 312.846 L 480.022 315.000 307.687 315.000 L 135.352 315.000 128.648 304.781 L 121.945 294.562 178.187 238.313 L 234.429 182.064 255.465 202.837 C 267.034 214.262 278.112 224.587 280.082 225.782 M 61.158 157.500 C 69.720 179.308 89.743 217.333 103.201 237.343 L 107.803 244.186 101.652 249.381 C 88.666 260.348 88.799 267.128 102.526 293.964 C 113.869 316.139 128.212 335.128 148.651 355.028 C 169.663 375.486 192.514 391.277 215.500 401.224 C 234.272 409.346 241.236 407.872 251.606 393.578 L 253.713 390.674 268.106 399.701 C 292.790 415.181 319.282 428.720 343.207 438.083 C 351.384 441.283 351.880 441.643 351.345 443.995 C 350.415 448.086 346.086 454.112 339.488 460.500 C 327.127 472.469 313.446 478.207 292.709 480.120 C 230.479 485.861 158.170 453.103 98.996 392.362 C 55.165 347.370 27.024 295.289 19.471 245.182 C 17.827 234.275 17.580 209.212 19.007 198.218 C 21.450 179.408 31.434 162.302 46.400 151.285 C 55.257 144.764 56.336 145.218 61.158 157.500 M 496.364 52.640 C 496.714 55.191 497.000 110.653 497.000 175.889 L 497.000 294.498 434.752 232.250 L 372.504 170.002 433.499 109.001 C 467.046 75.450 494.772 48.000 495.111 48.000 C 495.450 48.000 496.014 50.088 496.364 52.640 M 167.791 223.709 L 113.583 277.924 111.291 272.292 C 110.031 269.195 109.000 266.387 109.000 266.052 C 109.000 265.718 115.518 260.361 123.485 254.149 C 131.452 247.936 139.568 240.986 141.522 238.703 C 146.109 233.344 148.401 225.574 147.755 217.572 C 147.316 212.149 145.330 207.635 129.166 175.324 C 119.212 155.427 109.671 137.556 107.964 135.612 C 106.257 133.668 103.317 131.123 101.430 129.957 L 98.000 127.837 98.000 90.543 C 98.000 70.032 98.290 51.798 98.645 50.023 C 99.288 46.809 99.522 47.028 160.645 108.145 L 222.000 169.494 167.791 223.709 M 92.500 144.854 C 94.905 146.334 99.021 153.642 113.250 181.699 C 125.264 205.387 131.000 217.732 131.000 219.899 C 131.000 224.181 128.831 228.129 124.781 231.218 L 121.445 233.763 118.032 228.631 C 111.992 219.548 100.489 199.845 93.729 187.000 C 87.618 175.390 75.000 147.134 75.000 145.060 C 75.000 142.512 88.438 142.354 92.500 144.854 M 315.771 384.899 C 342.910 398.443 352.108 403.492 353.569 405.649 C 355.069 407.864 355.457 410.007 355.308 415.252 C 355.202 418.966 354.860 422.417 354.549 422.921 C 353.808 424.119 340.220 418.644 321.431 409.576 C 304.482 401.396 289.176 392.814 274.715 383.382 C 266.453 377.993 265.077 376.727 265.873 375.250 C 268.073 371.169 274.021 367.219 278.202 367.063 C 279.138 367.029 296.044 375.055 315.771 384.899 "></path></g>
                </svg>